HIERARCHY
ROOT Hips
{
	OFFSET 0.000000 0.000000 0.000000 
	CHANNELS 6 Xposition Yposition Zposition Zrotation Yrotation Xrotation
	JOINT LeftUpLeg
	{
		OFFSET 1.363060 -1.794630 0.839290 
		CHANNELS 3 Zrotation Yrotation Xrotation
		JOINT LeftLeg
		{
			OFFSET 2.448110 -6.726130 0.000000 
			CHANNELS 3 Zrotation Yrotation Xrotation
			JOINT LeftFoot
			{
				OFFSET 2.562200 -7.039590 0.000000 
				CHANNELS 3 Zrotation Yrotation Xrotation
				JOINT LeftToeBase
				{
					OFFSET 0.157640 -0.433110 2.322550 
					CHANNELS 3 Zrotation Yrotation Xrotation
					End Site
					{
						OFFSET 0.000000 0.000000 0.000000 
					}
				}
			}
		}
	}
	JOINT RightUpLeg
	{
		OFFSET -1.305520 -1.794630 0.839290 
		CHANNELS 3 Zrotation Yrotation Xrotation
		JOINT RightLeg
		{
			OFFSET -2.542530 -6.985550 0.000000 
			CHANNELS 3 Zrotation Yrotation Xrotation
			JOINT RightFoot
			{
				OFFSET -2.568260 -7.056230 0.000000 
				CHANNELS 3 Zrotation Yrotation Xrotation
				JOINT RightToeBase
				{
					OFFSET -0.164730 -0.452590 2.363150 
					CHANNELS 3 Zrotation Yrotation Xrotation
					End Site
					{
						OFFSET 0.000000 0.000000 0.000000 
					}
				}
			}
		}
	}
	JOINT Spine
	{
		OFFSET 0.028270 2.035590 -0.193380 
		CHANNELS 3 Zrotation Yrotation Xrotation
		JOINT Spine1
		{
			OFFSET 0.056720 2.048850 -0.042750 
			CHANNELS 3 Zrotation Yrotation Xrotation
			JOINT Neck1
			{
				OFFSET -0.054170 1.746240 0.172020 
				CHANNELS 3 Zrotation Yrotation Xrotation
				JOINT Head
				{
					OFFSET 0.104070 1.761360 -0.123970 
					CHANNELS 3 Zrotation Yrotation Xrotation
					End Site
					{
						OFFSET 0.000000 0.000000 0.000000 
					}
				}
			}
			JOINT LeftArm
			{
				OFFSET 3.362410 1.200890 -0.311210 
				CHANNELS 3 Zrotation Yrotation Xrotation
				JOINT LeftForeArm
				{
					OFFSET 4.983000 -0.000000 -0.000000 
					CHANNELS 3 Zrotation Yrotation Xrotation
					JOINT LeftHand
					{
						OFFSET 3.483560 -0.000000 -0.000000 
						CHANNELS 3 Zrotation Yrotation Xrotation
						JOINT LeftHandIndex1
						{
							OFFSET 0.715260 -0.000000 -0.000000 
							CHANNELS 3 Zrotation Yrotation Xrotation
							End Site
							{
								OFFSET 0.000000 0.000000 0.000000 
							}
						}
					}
				}
			}
			JOINT RightArm
			{
				OFFSET -3.136600 1.374050 -0.404650 
				CHANNELS 3 Zrotation Yrotation Xrotation
				JOINT RightForeArm
				{
					OFFSET -5.241900 -0.000000 -0.000000 
					CHANNELS 3 Zrotation Yrotation Xrotation
					JOINT RightHand
					{
						OFFSET -3.444170 -0.000000 -0.000000 
						CHANNELS 3 Zrotation Yrotation Xrotation
						JOINT RightHandIndex1
						{
							OFFSET -0.622530 -0.000000 -0.000000 
							CHANNELS 3 Zrotation Yrotation Xrotation
							End Site
							{
								OFFSET 0.000000 0.000000 0.000000 
							}
						}
					}
				}
			}
		}
	}
}
MOTION
Frames: 11
Frame Time: 0.041667
-38.462676 16.725438 -1.074287 173.895485 53.401918 178.834294 -20.610577 -10.122425 -17.509037 3.857492 14.743626 42.302545 2.392477 -15.783503 -6.272425 0.009900 0.643200 1.767400 18.863138 -5.500643 -15.279070 -10.587019 -18.013919 62.222851 2.708399 -14.641501 -6.046783 -2.742900 10.266700 -29.844900 -0.509046 6.357438 -2.268989 2.047763 3.184588 2.592748 13.923055 -32.346168 0.647588 15.627800 -14.080500 3.786900 57.301560 -54.559220 -90.627035 67.565465 -57.878277 -45.194449 -0.177847 -1.531003 -28.135254 -7.125000 0.000000 0.000000 -93.601721 68.238048 -141.892346 -67.923768 65.514191 -50.442529 0.659968 -0.211986 -1.003729 7.125000 0.000000 0.000000 
-38.462676 16.719827 -1.057455 173.564544 53.006992 178.844168 -20.860154 -10.355281 -17.974122 3.982493 14.925003 42.753602 2.458412 -14.504554 -8.110156 0.373300 -3.924200 -10.863600 19.128727 -5.557476 -15.186205 -10.513218 -17.982779 61.981447 2.893034 -15.490143 -6.417091 -2.799000 10.362400 -30.158400 -0.433354 6.467827 -2.061115 1.738127 3.299463 1.275917 13.845705 -33.488156 0.306652 15.116300 -14.428800 3.557100 55.870959 -55.241706 -89.627172 68.967612 -58.189274 -46.515571 -0.179019 -1.523195 -28.112005 -7.125000 0.000000 0.000000 -97.796492 72.992491 -145.880791 -68.181313 63.954568 -50.727282 0.742647 -0.233877 -0.817486 7.125000 0.000000 0.000000 
-38.460696 16.724448 -1.044804 173.356900 52.283121 179.059794 -21.044902 -10.692851 -18.278882 4.103261 15.077004 43.168998 2.528372 -13.141853 -10.164611 1.675100 -8.153800 -23.182300 19.467953 -5.799834 -15.087032 -10.389941 -17.966937 61.619328 3.087902 -16.386789 -6.805926 -2.779300 10.328900 -30.048600 -0.364753 6.938784 -1.944529 0.670818 3.912958 -2.606117 13.496079 -33.494716 0.942796 15.129700 -14.430600 3.543200 54.555089 -56.524003 -88.457604 70.148455 -58.671365 -47.767234 -0.172335 -1.514719 -27.866929 -7.125000 0.000000 0.000000 -110.950261 86.945829 -155.727199 -69.939298 57.185154 -51.709642 0.785466 -0.321246 -1.176212 7.125000 0.000000 0.000000 
-38.458716 16.725328 -1.032372 173.247093 51.240538 179.082021 -21.187474 -11.175147 -18.363434 4.230239 15.095524 43.524917 2.545858 -12.745530 -10.820454 2.046200 -8.961600 -25.675300 19.732717 -5.959626 -15.110453 -10.244104 -17.992236 61.218175 3.234736 -17.050371 -7.054314 -2.573100 9.969500 -28.878200 -0.589440 8.109331 -2.235069 0.421995 5.176856 -5.156015 13.577985 -33.416355 0.610911 15.631200 -14.307400 3.624700 52.391654 -56.943690 -86.875125 71.331458 -58.958404 -49.097687 -0.059213 -1.563589 -27.995916 -7.125000 0.000000 0.000000 45.904645 72.371994 10.931526 -76.841535 53.078820 -54.387449 0.357071 -0.234159 -3.216688 7.125000 0.000000 0.000000 
-38.459926 16.712016 -1.015430 173.001580 50.953466 179.105812 -21.317339 -11.571478 -18.719717 4.280988 15.188594 43.774043 2.507998 -13.312611 -10.000262 1.368600 -7.404100 -20.918200 19.877874 -5.847157 -15.090827 -10.137759 -17.923797 60.908830 3.332619 -17.528904 -7.800456 -2.385800 9.627200 -27.777800 -0.638853 8.003510 -2.266523 0.586341 5.051208 -4.358897 14.471643 -33.975144 -1.005763 16.226700 -14.203100 3.239900 50.999027 -57.198628 -85.829667 73.044448 -59.137092 -50.555405 -0.032693 -1.536279 -28.308130 -7.125000 0.000000 0.000000 41.748323 73.638788 5.569695 -78.044525 55.631048 -55.318297 0.279534 -0.279054 -3.714793 7.125000 0.000000 0.000000 
-38.460806 16.696834 -0.995407 172.884610 50.733447 179.284645 -21.314907 -11.905813 -19.162515 4.329899 15.290581 44.011666 2.479095 -13.759476 -9.372232 0.968500 -6.265600 -17.556900 20.104908 -5.656218 -15.080093 -10.025965 -17.864433 60.612774 3.429643 -18.042923 -8.765380 -2.361700 9.582000 -27.633500 -0.645206 7.893217 -2.252814 0.872866 4.872525 -3.336771 14.949424 -34.146406 -1.729796 16.518000 -14.100900 2.999400 49.878542 -57.626307 -84.999347 74.634430 -59.255430 -51.905670 -0.069897 -1.468535 -27.894305 -7.125000 0.000000 0.000000 37.067926 76.838943 -0.019352 -78.606881 57.171643 -55.883683 0.273447 -0.317960 -3.747507 7.125000 0.000000 0.000000 
-38.461356 16.682752 -0.974945 172.805332 50.419125 179.487901 -21.299670 -12.376604 -19.551010 4.387877 15.403024 44.256024 2.485782 -13.690191 -9.577991 1.052200 -6.522700 -18.308700 20.341327 -5.530252 -15.079719 -9.924440 -17.808512 60.338290 3.542541 -18.620482 -9.625544 -2.383900 9.623700 -27.766600 -0.624553 7.692507 -2.227021 1.294188 4.634922 -2.287294 15.345996 -34.506989 -2.302429 16.672700 -14.107300 2.897200 48.389662 -58.075312 -83.942199 76.176441 -59.335532 -53.290143 -0.087903 -1.419695 -27.337778 -7.125000 0.000000 0.000000 30.263997 80.492835 -7.198983 -79.220015 58.007431 -56.407347 0.279708 -0.349939 -3.633238 7.125000 0.000000 0.000000 
-38.458826 16.667681 -0.953492 172.860688 50.104847 179.640652 -21.198339 -12.732151 -19.781562 4.443126 15.490711 44.467365 2.499282 -13.620777 -9.816534 1.215300 -6.992900 -19.694500 20.665395 -5.370707 -14.919280 -9.830451 -17.758986 60.098542 3.643179 -19.164062 -10.462740 -2.344100 9.548800 -27.527500 -0.603439 7.582093 -2.201163 1.487124 4.479769 -1.671496 15.570194 -35.039104 -2.741482 16.592100 -14.233100 2.768900 46.713596 -58.740028 -82.809570 78.060467 -59.486162 -55.010239 -0.074098 -1.393274 -27.398254 -7.125000 0.000000 0.000000 23.585439 82.977000 -13.745761 -79.704909 58.291360 -56.745673 0.280493 -0.370566 -3.596295 7.125000 0.000000 0.000000 
-38.453765 16.650958 -0.929949 172.826312 49.765449 179.689117 -21.141478 -13.019767 -19.978435 4.480528 15.555496 44.626316 2.489534 -13.884691 -9.532294 1.189900 -6.922000 -19.484500 20.909230 -5.266550 -14.797859 -9.769552 -17.727727 59.951738 3.724859 -19.616665 -11.155805 -2.306500 9.477200 -27.299900 -0.585017 7.555976 -2.176216 1.656741 4.402682 -1.270794 15.568648 -35.372724 -2.779980 16.361800 -14.389600 2.831800 45.260588 -59.687652 -82.158104 80.030036 -59.655805 -56.817859 -0.045765 -1.368929 -27.412950 -7.125000 0.000000 0.000000 17.697424 84.426409 -19.107278 -80.340773 58.419954 -57.176732 0.274470 -0.377776 -3.614456 7.125000 0.000000 0.000000 
-38.455085 16.624335 -0.905746 172.462765 49.297540 179.596904 -21.249403 -13.670046 -20.212938 4.493041 15.616291 44.730991 2.453954 -14.829710 -8.532707 0.676800 -5.260300 -14.652600 20.866629 -5.286886 -14.913146 -9.759699 -17.718040 59.925007 3.820447 -20.077426 -11.634962 -2.334500 9.530500 -27.469500 -0.562124 7.504264 -2.159989 2.028743 4.316740 -0.907864 15.653626 -35.533765 -2.699404 16.285500 -14.501500 3.059500 43.704525 -60.825564 -81.370171 81.849963 -59.776511 -58.455181 -0.047754 -1.316679 -26.711213 -7.125000 0.000000 0.000000 10.923432 85.633724 -25.141231 -81.231382 58.525689 -57.794117 0.271159 -0.375852 -3.239114 7.125000 0.000000 0.000000 
-38.460256 16.601122 -0.881213 172.207385 48.921371 179.598152 -21.286357 -14.358756 -20.449075 4.503715 15.675588 44.818394 2.426000 -15.474622 -7.897925 0.297400 -3.506400 -9.691900 20.870384 -5.206555 -15.039821 -9.778652 -17.730083 60.008458 3.867895 -20.367191 -12.149063 -2.320800 9.504600 -27.387000 -0.534857 7.482727 -2.145316 2.307590 4.232648 -0.681385 15.816756 -35.910126 -2.951712 16.227100 -14.607900 2.932600 41.239767 -61.922175 -79.270531 83.962879 -59.905190 -60.275483 -0.086090 -1.235518 -25.991645 -7.125000 0.000000 0.000000 3.304110 86.862612 -32.114305 -82.194388 58.612041 -58.463214 0.279174 -0.374830 -2.415268 7.125000 0.000000 0.000000 
